<?xml version="1.0" encoding="utf-8"?>
<!-- Generator: Adobe Illustrator 19.0.0, SVG Export Plug-In . SVG Version: 6.00 Build 0)  -->
<svg version="1.0" id="Layer_1" xmlns="http://www.w3.org/2000/svg" xmlns:xlink="http://www.w3.org/1999/xlink" x="0px" y="0px"
	 viewBox="-261.5 390.3 110 14" enable-background="new -261.5 390.3 110 14" xml:space="preserve">
<path fill="#4B647C" d="M-254.2,393.3h-0.8v7.4c0,0.4,0.1,0.6,0.3,0.8c0.2,0.2,0.4,0.3,0.7,0.3h0.6v-7.6c0-0.3-0.1-0.5-0.3-0.7
	C-253.8,393.4-254,393.3-254.2,393.3z"/>
<path fill="#4B647C" d="M-248.9,395c-1,0-1.7,0.3-2.3,0.9c-0.5,0.6-0.8,1.2-0.8,2v2.9c0,0.3,0.1,0.6,0.3,0.8
	c0.2,0.2,0.5,0.3,0.9,0.3h0.5V398c0-0.5,0.1-0.8,0.3-1.1c0.2-0.3,0.5-0.4,0.9-0.4c0.9,0,1.4,0.5,1.4,1.6v2.7c0,0.3,0.1,0.6,0.3,0.8
	c0.2,0.2,0.5,0.3,0.9,0.3h0.5v-3.9c0-0.9-0.3-1.7-0.8-2.2C-247.4,395.2-248.1,395-248.9,395z"/>
<path fill="#4B647C" d="M-239.8,392.9h-0.5v3.2c-0.1-0.3-0.4-0.5-0.7-0.8c-0.3-0.2-0.7-0.3-1-0.3c-1,0-1.7,0.3-2.2,1
	c-0.5,0.7-0.8,1.5-0.8,2.7c0,0.9,0.3,1.7,0.9,2.4c0.6,0.7,1.3,1,2.2,1c1.1,0,1.9-0.3,2.5-0.9c0.5-0.6,0.8-1.4,0.8-2.4V394
	c0-0.3-0.1-0.6-0.3-0.8C-239.1,393-239.4,392.9-239.8,392.9z M-241.7,400.6c-0.5,0-0.9-0.2-1.2-0.6c-0.3-0.4-0.5-1-0.5-1.7
	c0-0.5,0.1-1,0.4-1.4c0.3-0.4,0.6-0.5,1-0.5c0.5,0,0.9,0.2,1.2,0.6c0.3,0.4,0.5,1,0.5,1.7C-240.3,399.9-240.8,400.6-241.7,400.6z"/>
<path fill="#4B647C" d="M-232.4,398.8c0.5-0.2,0.7-0.7,0.7-1.3c0-0.8-0.3-1.4-0.8-1.9c-0.5-0.5-1.2-0.7-1.9-0.7c-1,0-1.8,0.3-2.4,1
	c-0.6,0.7-0.9,1.6-0.9,2.7c0,1,0.3,1.8,1,2.4c0.7,0.6,1.4,0.9,2.3,0.9c1.6,0,2.4-0.5,2.4-1.5V400h-0.1c-0.5,0.4-1.1,0.6-2.1,0.6
	c-0.5,0-0.9-0.1-1.3-0.4c-0.4-0.3-0.6-0.6-0.6-1h1.1C-233.7,399.2-232.9,399.1-232.4,398.8z M-235.9,398l0-0.2c0-0.4,0.2-0.7,0.4-1
	c0.3-0.3,0.6-0.4,1-0.4c0.4,0,0.7,0.1,0.9,0.3c0.2,0.2,0.3,0.4,0.3,0.8c0,0.2-0.1,0.4-0.4,0.5c-0.3,0.1-0.8,0.1-1.6,0.1H-235.9z"/>
<path fill="#4B647C" d="M-226.3,399.7l-0.7-1.1c0.4-0.5,0.8-0.9,1-1.2c0.5-0.7,0.8-1.2,0.8-1.5c0-0.2-0.1-0.4-0.2-0.5
	c-0.1-0.1-0.3-0.2-0.5-0.2h-0.6c-0.1,0.4-0.2,0.7-0.3,0.9c-0.2,0.3-0.5,0.7-1,1.3l-0.7-1c-0.6-0.9-1.1-1.3-1.5-1.3h-1
	c0,0.2,0.1,0.4,0.2,0.6c0.1,0.2,0.2,0.4,0.3,0.6c0.1,0.2,0.3,0.5,0.7,1l0.7,1l-0.5,0.6c-0.5,0.5-0.8,0.9-1,1.3
	c-0.2,0.4-0.3,0.7-0.3,1.1c0,0.2,0.1,0.3,0.2,0.4c0.1,0.1,0.3,0.2,0.5,0.2h0.8c0.1-0.4,0.2-0.8,0.4-1.1c0.2-0.3,0.5-0.7,0.9-1.2
	l0.7,1.1c0.3,0.5,0.6,0.8,0.9,1s0.6,0.3,0.9,0.3c0.4,0,0.6-0.1,0.8-0.2c0.2-0.2,0.3-0.4,0.3-0.6c-0.3-0.1-0.5-0.2-0.7-0.4
	C-225.6,400.5-225.9,400.2-226.3,399.7z"/>
<path fill="#4B647C" d="M-220.8,393.2h-1c-0.3,0-0.7,0-1.1,0.1c-0.5,0.1-0.8,0.2-1.1,0.3v7c0,0.4,0.1,0.7,0.3,0.9
	c0.2,0.2,0.5,0.3,0.7,0.3h0.7v-3.3c0.4,0.2,0.8,0.3,1.4,0.3c0.8,0,1.5-0.3,2.1-0.8c0.5-0.5,0.8-1.2,0.8-2.1c0-0.8-0.3-1.5-0.8-2
	C-219.3,393.5-220,393.2-220.8,393.2z M-220.1,397c-0.2,0.2-0.6,0.3-1,0.3c-0.5,0-0.9-0.1-1.2-0.1v-2.4c0.4-0.1,0.6-0.1,0.7-0.1h0.5
	c0.5,0,0.8,0.1,1,0.3c0.2,0.2,0.3,0.6,0.3,1C-219.8,396.5-219.9,396.8-220.1,397z"/>
<path fill="#4B647C" d="M-214.3,395c-1,0-1.9,0.3-2.5,1c-0.6,0.7-0.9,1.6-0.9,2.6c0,0.9,0.3,1.7,0.9,2.4c0.6,0.7,1.4,1,2.3,1
	c1,0,1.9-0.3,2.5-1c0.6-0.7,0.9-1.6,0.9-2.6c0-0.9-0.3-1.7-0.9-2.4C-212.5,395.3-213.3,395-214.3,395z M-213.2,400
	c-0.2,0.3-0.6,0.5-1.1,0.5c-1.1,0-1.6-0.7-1.6-2.1c0-0.6,0.1-1,0.4-1.4c0.2-0.4,0.6-0.5,1.1-0.5c1.1,0,1.6,0.7,1.6,2.1
	C-212.8,399.2-212.9,399.6-213.2,400z"/>
<path fill="#4B647C" d="M-205.2,392.9h-0.5v3.2c-0.1-0.3-0.4-0.5-0.7-0.8c-0.3-0.2-0.7-0.3-1-0.3c-1,0-1.7,0.3-2.2,1
	c-0.5,0.7-0.8,1.5-0.8,2.7c0,0.9,0.3,1.7,0.9,2.4c0.6,0.7,1.3,1,2.2,1c1.1,0,1.9-0.3,2.5-0.9c0.5-0.6,0.8-1.4,0.8-2.4V394
	c0-0.3-0.1-0.6-0.3-0.8C-204.5,393-204.8,392.9-205.2,392.9z M-207,400.6c-0.5,0-0.9-0.2-1.2-0.6c-0.3-0.4-0.5-1-0.5-1.7
	c0-0.5,0.1-1,0.4-1.4c0.3-0.4,0.6-0.5,1-0.5c0.5,0,0.9,0.2,1.2,0.6c0.3,0.4,0.5,1,0.5,1.7C-205.7,399.9-206.2,400.6-207,400.6z"/>
<path fill="#4B647C" d="M-199.7,395c-1,0-1.7,0.3-2.3,0.9c-0.5,0.6-0.8,1.2-0.8,2v2.9c0,0.3,0.1,0.6,0.3,0.8
	c0.2,0.2,0.5,0.3,0.9,0.3h0.5V398c0-0.5,0.1-0.8,0.3-1.1c0.2-0.3,0.5-0.4,0.9-0.4c0.9,0,1.4,0.5,1.4,1.6v2.7c0,0.3,0.1,0.6,0.3,0.8
	c0.2,0.2,0.5,0.3,0.9,0.3h0.5v-3.9c0-0.9-0.3-1.7-0.8-2.2C-198.1,395.2-198.8,395-199.7,395z"/>
<path fill="#4B647C" d="M-193.3,400.3c-0.2-0.1-0.2-0.4-0.2-0.7v-3.1c0-0.8-0.4-1.2-1.2-1.2h-0.5v4.6c0,0.7,0.2,1.2,0.5,1.6
	c0.3,0.4,0.8,0.5,1.5,0.5c0.4,0,0.6-0.1,0.8-0.2c0.2-0.2,0.2-0.4,0.2-0.8v-0.4h-0.3C-192.9,400.5-193.2,400.5-193.3,400.3z"/>
<path fill="#4B647C" d="M-194.4,394.6c0.3,0,0.5-0.1,0.7-0.3c0.2-0.2,0.3-0.4,0.3-0.7c0-0.3-0.1-0.5-0.3-0.7
	c-0.2-0.2-0.4-0.3-0.7-0.3c-0.3,0-0.5,0.1-0.7,0.3c-0.2,0.2-0.3,0.4-0.3,0.7c0,0.3,0.1,0.5,0.3,0.7
	C-194.9,394.5-194.7,394.6-194.4,394.6z"/>
<path fill="#4B647C" d="M-186.5,400.2c-0.3-0.3-0.8-0.9-1.7-2c0.4-0.5,0.9-1,1.5-1.7c0.6-0.7,1-1.1,1.3-1.3v-0.1h-1
	c-0.6,0-1,0.1-1.3,0.4c-0.5,0.4-1.2,1.3-2.1,2.4v-4c0-0.3-0.1-0.6-0.3-0.8c-0.2-0.2-0.5-0.3-0.9-0.3h-0.5v7.8c0,0.4,0.1,0.7,0.3,0.9
	c0.2,0.2,0.5,0.3,0.9,0.3l0.5,0v-3.3c1,1.3,1.8,2.3,2.3,2.9c0.3,0.3,0.7,0.5,1.1,0.5c0.3,0,0.6-0.1,0.7-0.2c0.2-0.1,0.3-0.3,0.4-0.6
	c-0.2-0.1-0.4-0.2-0.6-0.3C-186,400.7-186.3,400.5-186.5,400.2z"/>
<path fill="#4B647C" d="M-180.3,395.6c-0.3-0.2-0.6-0.4-0.9-0.5c-0.3-0.1-0.7-0.1-1.1-0.1c-0.8,0-1.4,0.2-1.8,0.5
	c-0.4,0.3-0.6,0.7-0.6,1.1v0.5h0.1c0.2-0.2,0.4-0.4,0.8-0.5c0.4-0.2,0.8-0.2,1.4-0.2c0.5,0,0.9,0.1,1.1,0.3c0.2,0.2,0.3,0.5,0.3,1
	v0.1h-0.6c-1.2,0-2,0.2-2.6,0.6c-0.5,0.4-0.8,0.9-0.8,1.5c0,0.6,0.3,1.1,0.8,1.5c0.5,0.4,1.1,0.6,1.9,0.6h0.3c0.7,0,1.4-0.2,1.8-0.7
	c0.5-0.4,0.7-1,0.7-1.7V398c0-0.6-0.1-1-0.2-1.4C-179.8,396.1-180,395.8-180.3,395.6z M-181.1,399.6c0,0.7-0.4,1-1.1,1
	c-0.4,0-0.6-0.1-0.9-0.2c-0.2-0.1-0.3-0.4-0.3-0.6c0-0.3,0.1-0.5,0.4-0.6c0.2-0.1,0.7-0.2,1.3-0.2h0.6L-181.1,399.6L-181.1,399.6
	L-181.1,399.6z"/>
<path fill="#4B647C" d="M-176.7,393.6h-0.4c-0.3,0-0.5,0.2-0.8,0.5c-0.2,0.2-0.3,0.4-0.4,0.6c-0.1,0.2-0.1,0.4-0.1,0.7v4
	c0,0.8,0.2,1.4,0.6,1.8c0.4,0.4,1.1,0.6,1.9,0.6c0.5,0,0.8-0.1,1.1-0.3c0.3-0.2,0.4-0.5,0.4-0.8v-0.6h-0.1c-0.3,0.2-0.7,0.2-1.2,0.2
	c-0.7,0-1.1-0.4-1.1-1.2v-2.6h1.3c0.3,0,0.6-0.1,0.7-0.2c0.2-0.2,0.3-0.4,0.3-0.5v-0.7h-2.3L-176.7,393.6L-176.7,393.6z"/>
<path fill="#4B647C" d="M-168.7,398.8c0.5-0.2,0.7-0.7,0.7-1.3c0-0.8-0.3-1.4-0.8-1.9c-0.5-0.5-1.2-0.7-1.9-0.7c-1,0-1.8,0.3-2.4,1
	c-0.6,0.7-0.9,1.6-0.9,2.7c0,1,0.3,1.8,1,2.4c0.7,0.6,1.4,0.9,2.3,0.9c1.6,0,2.4-0.5,2.4-1.5V400h-0.1c-0.5,0.4-1.1,0.6-2.1,0.6
	c-0.5,0-0.9-0.1-1.3-0.4c-0.4-0.3-0.6-0.6-0.6-1h1.1C-170,399.2-169.2,399.1-168.7,398.8z M-172.2,398l0-0.2c0-0.4,0.2-0.7,0.4-1
	s0.6-0.4,1-0.4c0.4,0,0.7,0.1,0.9,0.3c0.2,0.2,0.3,0.4,0.3,0.8c0,0.2-0.1,0.4-0.4,0.5c-0.3,0.1-0.8,0.1-1.6,0.1H-172.2z"/>
<path fill="#4B647C" d="M-165,400.3c-0.2-0.1-0.3-0.4-0.3-0.7V394c0-0.3-0.1-0.6-0.3-0.8c-0.2-0.2-0.5-0.3-0.9-0.3h-0.5v7
	c0,0.7,0.2,1.2,0.5,1.6c0.4,0.4,0.9,0.5,1.6,0.5c0.8,0,1.1-0.3,1.1-1v-0.4h-0.4C-164.5,400.5-164.8,400.5-165,400.3z"/>
<path fill="#4B647C" d="M-158.8,395.6c-0.3-0.2-0.6-0.4-0.9-0.5c-0.3-0.1-0.7-0.1-1.1-0.1c-0.8,0-1.4,0.2-1.8,0.5
	c-0.4,0.3-0.6,0.7-0.6,1.1v0.5h0.1c0.2-0.2,0.4-0.4,0.8-0.5c0.4-0.2,0.8-0.2,1.4-0.2c0.5,0,0.9,0.1,1.1,0.3c0.2,0.2,0.3,0.5,0.3,1
	v0.1h-0.6c-1.2,0-2,0.2-2.6,0.6c-0.5,0.4-0.8,0.9-0.8,1.5c0,0.6,0.3,1.1,0.8,1.5c0.5,0.4,1.1,0.6,1.9,0.6h0.3c0.8,0,1.4-0.2,1.8-0.7
	c0.5-0.4,0.7-1,0.7-1.7V398c0-0.6-0.1-1-0.2-1.4C-158.3,396.1-158.5,395.8-158.8,395.6z M-159.6,399.6c0,0.7-0.4,1-1.1,1
	c-0.4,0-0.7-0.1-0.9-0.2c-0.2-0.1-0.3-0.4-0.3-0.6c0-0.3,0.1-0.5,0.4-0.6c0.2-0.1,0.7-0.2,1.3-0.2h0.6L-159.6,399.6L-159.6,399.6z"
	/>
<path fill="#4B647C" d="M-163.5,394.8c0.1-0.6,0.3-1.5-0.3-1.8c-0.3-0.2-0.8-0.1-1.2-0.1c0.1,0.9-0.2,2.6,1,2.8
	C-163.5,395.8-163.5,395.2-163.5,394.8z"/>
</svg>
