<?xml version="1.0" encoding="utf-8"?>
<!-- Generator: Adobe Illustrator 19.0.0, SVG Export Plug-In . SVG Version: 6.00 Build 0)  -->
<svg version="1.0" xmlns="http://www.w3.org/2000/svg" xmlns:xlink="http://www.w3.org/1999/xlink" x="0px" y="0px"
	 viewBox="0 0 816 319" enable-background="new 0 0 816 319" xml:space="preserve">
<g id="Layer_2_copy" display="none">
	<rect display="inline" fill="#9EC1DC" width="816" height="319"/>
	<radialGradient id="SVGID_1_" cx="163.2212" cy="165.9307" r="132" gradientUnits="userSpaceOnUse">
		<stop  offset="0" style="stop-color:#FFFFFF"/>
		<stop  offset="0.2313" style="stop-color:#FCFDFE"/>
		<stop  offset="0.4278" style="stop-color:#F1F6FA"/>
		<stop  offset="0.6117" style="stop-color:#E0EBF4"/>
		<stop  offset="0.7878" style="stop-color:#C7DBEB"/>
		<stop  offset="0.957" style="stop-color:#A7C7DF"/>
		<stop  offset="1" style="stop-color:#9EC1DC"/>
	</radialGradient>
	<circle display="inline" opacity="0.48" fill="url(#SVGID_1_)" cx="163.2" cy="165.9" r="132"/>
</g>
<g id="Layer_1">
	<g>
		
			<image overflow="visible" width="1111" height="1111" xlink:href="94E73B5CC0EA8302.png"  transform="matrix(0.24 0 0 0.24 30.9082 32.7178)">
		</image>
		<g>
			<g>
				<linearGradient id="SVGID_2_" gradientUnits="userSpaceOnUse" x1="151.7489" y1="105.2846" x2="166.572" y2="138.5776">
					<stop  offset="0" style="stop-color:#4F6AB2"/>
					<stop  offset="0.2256" style="stop-color:#475D9E"/>
					<stop  offset="0.653" style="stop-color:#323F78"/>
					<stop  offset="1" style="stop-color:#1F245A"/>
				</linearGradient>
				<ellipse fill="url(#SVGID_2_)" cx="159.2" cy="121.9" rx="18.5" ry="18.2"/>
				<linearGradient id="SVGID_3_" gradientUnits="userSpaceOnUse" x1="121.2816" y1="65.3497" x2="210.139" y2="264.9266">
					<stop  offset="0" style="stop-color:#4F6AB2"/>
					<stop  offset="0.2256" style="stop-color:#475D9E"/>
					<stop  offset="0.653" style="stop-color:#323F78"/>
					<stop  offset="1" style="stop-color:#1F245A"/>
				</linearGradient>
				<path fill="url(#SVGID_3_)" d="M238.2,82.3c-1.3-0.8-6.4-3.4-6.7-1.9c-0.6,2.8,16.4,12.7,16.9,26.3c0.2,6.4-5.7,26.7-40.9,38.1
					c-8.6,2.8-28.2,4.7-37.3,4.6c-11.1,0-31.5-3-42-6.6c-0.4-0.1-0.9-0.3-1.4-0.5c3.4-28.2,18.2-54.8,28.7-62.1
					c17-11.8,29.5-14.4,33.9-14.3c3.6,0,8.5,0.5,13.4,2c1.9,0.6,7.4,2.8,8.3,1.7c1.7-1.8-6.4-5.6-9-6.7c-7.6-3.2-22.7-6.2-38.2-6.2
					c-60.2,0-108.9,48.9-108.9,109.2c0,60.3,48.8,109.2,108.9,109.2c60.2,0,109.7-48.7,109.7-109.1
					C273.5,131.8,264.6,98.1,238.2,82.3z M139.8,64.8C134.4,68,129,72,126,74.9c-8.7,8.4-22.4,26.2-27.7,37.1
					c-1.9,3.8-4.2,9.2-6.5,15c-7.5-3.5-13.9-6.6-16.6-7.9C87.7,92.5,111.2,72.4,139.8,64.8z M66,153c3,5.2,8.9,10.2,15.8,14.7
					c-0.4,15.3,0.4,41,4.6,57c-13.1-17.1-20.9-38.7-20.9-62.1C65.5,159.4,65.7,156.2,66,153z M187.9,261c-2.2,0-4,0-6.5-0.9
					c-1.9-0.7-4.1-3.4-4.6-3.9c-9.3-11.8-11.9-27.7-12.8-30.8c-1.5-5.8-1.5-16.3-0.8-24.6c0-0.2-33.8-6-34.1-4.6
					c-0.9,6.1,0.3,18.2,1.7,24c1.6,6.8,5.2,17.9,8,25.1c2.4,6.2,7.2,12.8,11.8,17.4c-2.7-0.1-5.1-0.4-7.7-1.4
					c-4.7-1.9-10.2-10.2-11.6-12.2c-3.9-5.9-7.2-17.3-8.7-24.3c-1.8-8.1-4-26.4-3.1-34.6c0.2-1.5,0.4-3.1,0.6-4.7
					c17.5,4.8,51,8.7,67.3,6.3c28.7-4.4,49.7-17.7,61.4-28.3c4.5-4.1,13.3-19,13.4-24.1c1.4,7.2,2,14.9,2,23.4
					C264.1,211.3,232.7,249.8,187.9,261z"/>
			</g>
		</g>
	</g>
</g>
<g id="Layer_2">
	<g>
		<path fill="#3C4D89" d="M322.9,155h5.9v40.9h-5.9V155z"/>
		<path fill="#3C4D89" d="M370.3,155h5.6v40.9h-5l-27.4-31.5v31.5H338V155h4.7l27.6,31.8V155z"/>
		<path fill="#3C4D89" d="M381.2,154.9h34.2v5.2h-14.3v35.8h-5.9v-35.8h-14V154.9z"/>
		<path fill="#3C4D89" d="M420.9,155h23.2v5.2h-17.3v12.5h16.8v5.2h-16.8v12.7h17.9v5.2h-23.8V155z"/>
		<path fill="#3C4D89" d="M451.1,195.9V155h10.3c4.1,0,7.4,1,9.9,3.1s3.6,4.8,3.6,8.3c0,2.4-0.6,4.4-1.8,6.2c-1.2,1.7-2.9,3-5.1,3.9
			c1.3,0.9,2.6,2,3.8,3.5c1.2,1.5,3,4.1,5.3,7.8c1.4,2.3,2.6,4.1,3.4,5.2l2.2,2.9h-7l-1.8-2.7c-0.1-0.1-0.2-0.3-0.4-0.5l-1.1-1.6
			l-1.8-3l-2-3.2c-1.2-1.7-2.3-3-3.3-4c-1-1-1.9-1.7-2.7-2.1c-0.8-0.4-2.2-0.7-4.1-0.7h-1.5v17.8H451.1z M458.7,160h-1.8v12.9h2.2
			c3,0,5-0.3,6.1-0.8c1.1-0.5,2-1.3,2.6-2.3s0.9-2.2,0.9-3.5c0-1.3-0.3-2.5-1-3.5c-0.7-1-1.6-1.8-2.9-2.2
			C463.6,160.2,461.5,160,458.7,160z"/>
		<path fill="#3C4D89" d="M519.6,155h5.6v40.9h-5l-27.4-31.5v31.5h-5.5V155h4.7l27.6,31.8V155z"/>
		<path fill="#3C4D89" d="M547,154.7h4.1l18.4,41.2h-6l-5.5-12.1h-17.5l-5.1,12.1h-6L547,154.7z M555.6,178.6l-6.6-14.8l-6.1,14.8
			H555.6z"/>
		<path fill="#3C4D89" d="M564.5,154.9h34.2v5.2h-14.3v35.8h-5.9v-35.8h-14V154.9z"/>
		<path fill="#3C4D89" d="M604.3,155h5.9v40.9h-5.9V155z"/>
		<path fill="#3C4D89" d="M639.3,154.4c6.3,0,11.6,2,15.8,6c4.2,4,6.3,9,6.3,15.1s-2.1,11-6.4,15s-9.6,5.9-16.1,5.9
			c-6.2,0-11.3-2-15.4-5.9c-4.1-4-6.2-8.9-6.2-14.9c0-6.1,2.1-11.2,6.2-15.2C627.7,156.4,633,154.4,639.3,154.4z M639.5,160
			c-4.7,0-8.5,1.5-11.5,4.4s-4.5,6.7-4.5,11.2c0,4.4,1.5,8.1,4.5,11c3,2.9,6.8,4.4,11.4,4.4c4.6,0,8.4-1.5,11.4-4.5
			s4.6-6.7,4.6-11.2c0-4.3-1.5-8-4.6-10.9S644,160,639.5,160z"/>
		<path fill="#3C4D89" d="M701.1,155h5.6v40.9h-5l-27.4-31.5v31.5h-5.5V155h4.7l27.6,31.8V155z"/>
		<path fill="#3C4D89" d="M728.5,154.7h4.1l18.4,41.2h-6l-5.5-12.1h-17.5l-5.1,12.1h-6L728.5,154.7z M737.1,178.6l-6.6-14.8
			l-6.1,14.8H737.1z"/>
		<path fill="#3C4D89" d="M755.5,155h5.9v35.6h18.4v5.3h-24.3V155z"/>
	</g>
	<g>
		<path fill="#3C4D89" d="M309,94h34.2v5.2h-14.3V135h-5.9V99.2h-14V94z"/>
		<path fill="#3C4D89" d="M351.1,135V94.1h10.3c4.1,0,7.4,1,9.9,3.1s3.6,4.8,3.6,8.3c0,2.4-0.6,4.4-1.8,6.2c-1.2,1.7-2.9,3-5.1,3.9
			c1.3,0.9,2.6,2,3.8,3.5c1.2,1.5,3,4.1,5.3,7.8c1.4,2.3,2.6,4.1,3.4,5.2l2.2,2.9h-7l-1.8-2.7c-0.1-0.1-0.2-0.3-0.4-0.5l-1.1-1.6
			l-1.8-3l-2-3.2c-1.2-1.7-2.3-3-3.3-4c-1-1-1.9-1.7-2.7-2.1c-0.8-0.4-2.2-0.7-4.1-0.7H357V135H351.1z M358.8,99.1H357V112h2.2
			c3,0,5-0.3,6.1-0.8c1.1-0.5,2-1.3,2.6-2.3s0.9-2.2,0.9-3.5c0-1.3-0.3-2.5-1-3.5c-0.7-1-1.6-1.8-2.9-2.2
			C363.7,99.3,361.6,99.1,358.8,99.1z"/>
		<path fill="#3C4D89" d="M402.5,93.8h4.1L425,135h-6l-5.5-12.1h-17.5l-5.1,12.1h-6L402.5,93.8z M411.1,117.7l-6.6-14.8l-6.1,14.8
			H411.1z"/>
		<path fill="#3C4D89" d="M464.2,94.1h5.6V135h-5l-27.4-31.5V135h-5.5V94.1h4.7l27.6,31.8V94.1z"/>
		<path fill="#3C4D89" d="M490.9,117.9l-4.5-2.7c-2.8-1.7-4.8-3.4-6-5c-1.2-1.7-1.8-3.5-1.8-5.7c0-3.2,1.1-5.8,3.4-7.9
			c2.2-2,5.1-3,8.7-3c3.4,0,6.6,1,9.4,2.9v6.7c-2.9-2.8-6.1-4.3-9.5-4.3c-1.9,0-3.5,0.4-4.7,1.3s-1.8,2-1.8,3.4
			c0,1.2,0.5,2.4,1.4,3.4c0.9,1.1,2.4,2.2,4.4,3.4l4.5,2.6c5,3,7.5,6.8,7.5,11.4c0,3.3-1.1,5.9-3.3,8s-5.1,3.1-8.6,3.1
			c-4,0-7.7-1.2-11-3.7v-7.4c3.2,4,6.8,6,11,6c1.8,0,3.4-0.5,4.6-1.5c1.2-1,1.8-2.3,1.8-3.8C496.3,122.5,494.5,120.1,490.9,117.9z"
			/>
		<path fill="#3C4D89" d="M510.1,135V94h13c3.9,0,7,1.1,9.3,3.2s3.5,4.9,3.5,8.5c0,2.4-0.6,4.5-1.8,6.3c-1.2,1.8-2.8,3.2-4.9,4
			c-2.1,0.8-5,1.2-8.9,1.2H516V135H510.1z M522.1,99.2H516V112h6.4c2.4,0,4.2-0.6,5.5-1.7c1.3-1.1,1.9-2.7,1.9-4.8
			C529.9,101.3,527.3,99.2,522.1,99.2z"/>
		<path fill="#3C4D89" d="M551.5,93.8h4.1L574,135h-6l-5.5-12.1h-17.5l-5.1,12.1h-6L551.5,93.8z M560.1,117.7l-6.6-14.8l-6.1,14.8
			H560.1z"/>
		<path fill="#3C4D89" d="M580.9,135V94.1h10.3c4.1,0,7.4,1,9.9,3.1s3.6,4.8,3.6,8.3c0,2.4-0.6,4.4-1.8,6.2c-1.2,1.7-2.9,3-5.1,3.9
			c1.3,0.9,2.6,2,3.8,3.5c1.2,1.5,3,4.1,5.3,7.8c1.4,2.3,2.6,4.1,3.4,5.2l2.2,2.9h-7l-1.8-2.7c-0.1-0.1-0.2-0.3-0.4-0.5l-1.1-1.6
			l-1.8-3l-2-3.2c-1.2-1.7-2.3-3-3.3-4c-1-1-1.9-1.7-2.7-2.1c-0.8-0.4-2.2-0.7-4.1-0.7h-1.5V135H580.9z M588.5,99.1h-1.8V112h2.2
			c3,0,5-0.3,6.1-0.8c1.1-0.5,2-1.3,2.6-2.3s0.9-2.2,0.9-3.5c0-1.3-0.3-2.5-1-3.5c-0.7-1-1.6-1.8-2.9-2.2
			C593.4,99.3,591.3,99.1,588.5,99.1z"/>
		<path fill="#3C4D89" d="M619.1,94.1h23.2v5.2H625v12.5h16.8v5.2H625v12.7h17.9v5.2h-23.8V94.1z"/>
		<path fill="#3C4D89" d="M683.9,94.1h5.6V135h-5L657,103.5V135h-5.5V94.1h4.7l27.6,31.8V94.1z"/>
		<path fill="#3C4D89" d="M735.7,125.5v6.4c-4.3,2.3-9.3,3.5-14.9,3.5c-4.6,0-8.4-0.9-11.6-2.8c-3.2-1.8-5.7-4.4-7.6-7.6
			s-2.8-6.7-2.8-10.5c0-6,2.1-11,6.4-15c4.2-4.1,9.5-6.1,15.7-6.1c4.3,0,9.1,1.1,14.3,3.4v6.3c-4.8-2.7-9.5-4.1-14-4.1
			c-4.7,0-8.6,1.5-11.7,4.4s-4.6,6.7-4.6,11.1c0,4.5,1.5,8.2,4.6,11.1c3,2.9,6.9,4.3,11.7,4.3C726.1,130.1,731,128.6,735.7,125.5z"
			/>
		<path fill="#3C4D89" d="M769.7,94.1h7.1l-15.1,19.3V135h-6v-21.7l-15.1-19.3h7.1l11,14.1L769.7,94.1z"/>
	</g>
	<g>
		<path fill="#3C4D89" d="M522.2,234.7l-3.7-2.3c-2.3-1.4-4-2.8-5-4.2c-1-1.4-1.5-3-1.5-4.7c0-2.7,0.9-4.9,2.8-6.5
			c1.9-1.7,4.3-2.5,7.3-2.5c2.8,0,5.5,0.8,7.8,2.4v5.5c-2.5-2.4-5.1-3.5-7.9-3.5c-1.6,0-2.9,0.4-3.9,1.1s-1.5,1.7-1.5,2.8
			c0,1,0.4,2,1.1,2.9c0.8,0.9,2,1.8,3.6,2.8l3.7,2.2c4.2,2.5,6.2,5.6,6.2,9.5c0,2.7-0.9,5-2.7,6.7c-1.8,1.7-4.2,2.6-7.1,2.6
			c-3.4,0-6.4-1-9.2-3.1v-6.2c2.6,3.3,5.7,5,9.2,5c1.5,0,2.8-0.4,3.8-1.3c1-0.9,1.5-1.9,1.5-3.2
			C526.7,238.5,525.2,236.6,522.2,234.7z"/>
		<path fill="#3C4D89" d="M536.7,214.9h4.9v29.7h15.4v4.4h-20.2V214.9z"/>
		<path fill="#3C4D89" d="M577.9,214.4c5.3,0,9.7,1.7,13.2,5c3.5,3.3,5.3,7.5,5.3,12.5s-1.8,9.2-5.3,12.5s-8,4.9-13.4,4.9
			c-5.1,0-9.4-1.6-12.8-4.9s-5.1-7.4-5.1-12.4c0-5.1,1.7-9.3,5.2-12.6C568.3,216.1,572.7,214.4,577.9,214.4z M578.1,219
			c-3.9,0-7.1,1.2-9.6,3.7s-3.8,5.6-3.8,9.4c0,3.7,1.3,6.7,3.8,9.2s5.7,3.7,9.5,3.7c3.8,0,7-1.2,9.5-3.7s3.8-5.6,3.8-9.3
			c0-3.6-1.3-6.7-3.8-9.1S581.8,219,578.1,219z"/>
		<path fill="#3C4D89" d="M622,214.9h4.9l-14.4,34.3h-1.1l-14.7-34.3h4.9l10.3,24L622,214.9z"/>
		<path fill="#3C4D89" d="M630.6,214.9h19.3v4.3h-14.5v10.4h14v4.4h-14v10.6h14.9v4.3h-19.8V214.9z"/>
		<path fill="#3C4D89" d="M682.7,214.9h4.6V249h-4.2l-22.8-26.3V249h-4.6v-34.1h4l23,26.5V214.9z"/>
		<path fill="#3C4D89" d="M703.1,234.7l-3.7-2.3c-2.3-1.4-4-2.8-5-4.2c-1-1.4-1.5-3-1.5-4.7c0-2.7,0.9-4.9,2.8-6.5
			c1.9-1.7,4.3-2.5,7.3-2.5c2.8,0,5.5,0.8,7.8,2.4v5.5c-2.5-2.4-5.1-3.5-7.9-3.5c-1.6,0-2.9,0.4-3.9,1.1s-1.5,1.7-1.5,2.8
			c0,1,0.4,2,1.1,2.9c0.8,0.9,2,1.8,3.6,2.8l3.7,2.2c4.2,2.5,6.2,5.6,6.2,9.5c0,2.7-0.9,5-2.7,6.7c-1.8,1.7-4.2,2.6-7.1,2.6
			c-3.4,0-6.4-1-9.2-3.1v-6.2c2.6,3.3,5.7,5,9.2,5c1.5,0,2.8-0.4,3.8-1.3c1-0.9,1.5-1.9,1.5-3.2
			C707.5,238.5,706.1,236.6,703.1,234.7z"/>
		<path fill="#3C4D89" d="M736.8,214.9h6.1l-14.8,16.2l18.4,17.9h-6.7l-17.4-16.8V249h-4.9v-34.1h4.9v15.6L736.8,214.9z"/>
		<path fill="#3C4D89" d="M761,214.4c5.3,0,9.7,1.7,13.2,5c3.5,3.3,5.3,7.5,5.3,12.5s-1.8,9.2-5.3,12.5s-8,4.9-13.4,4.9
			c-5.1,0-9.4-1.6-12.8-4.9s-5.1-7.4-5.1-12.4c0-5.1,1.7-9.3,5.2-12.6C751.4,216.1,755.8,214.4,761,214.4z M761.2,219
			c-3.9,0-7.1,1.2-9.6,3.7s-3.8,5.6-3.8,9.4c0,3.7,1.3,6.7,3.8,9.2s5.7,3.7,9.5,3.7c3.8,0,7-1.2,9.5-3.7s3.8-5.6,3.8-9.3
			c0-3.6-1.3-6.7-3.8-9.1S764.9,219,761.2,219z"/>
	</g>
</g>
<g id="Layer_2_copy_3" display="none">
	<g display="inline">
		<path fill="#3C4D89" d="M317.3,85.7h34.2v5.2h-14.3v35.8h-5.9V90.9h-14V85.7z"/>
		<path fill="#3C4D89" d="M357.2,126.7V85.8h10.3c4.1,0,7.4,1,9.9,3.1s3.6,4.8,3.6,8.3c0,2.4-0.6,4.4-1.8,6.2
			c-1.2,1.7-2.9,3-5.1,3.9c1.3,0.9,2.6,2,3.8,3.5c1.2,1.5,3,4.1,5.3,7.8c1.4,2.3,2.6,4.1,3.4,5.2l2.2,2.9h-7L380,124
			c-0.1-0.1-0.2-0.3-0.4-0.5l-1.1-1.6l-1.8-3l-2-3.2c-1.2-1.7-2.3-3-3.3-4c-1-1-1.9-1.7-2.7-2.1c-0.8-0.4-2.2-0.7-4.1-0.7h-1.5v17.8
			H357.2z M364.8,90.7h-1.8v12.9h2.2c3,0,5-0.3,6.1-0.8c1.1-0.5,2-1.3,2.6-2.3s0.9-2.2,0.9-3.5c0-1.3-0.3-2.5-1-3.5
			c-0.7-1-1.6-1.8-2.9-2.2C369.8,91,367.7,90.7,364.8,90.7z"/>
		<path fill="#3C4D89" d="M406.3,85.5h4.1l18.4,41.2h-6l-5.5-12.1h-17.5l-5.1,12.1h-6L406.3,85.5z M415,109.3l-6.6-14.8l-6.1,14.8
			H415z"/>
		<path fill="#3C4D89" d="M465.8,85.8h5.6v40.9h-5L439,95.2v31.5h-5.5V85.8h4.7l27.6,31.8V85.8z"/>
		<path fill="#3C4D89" d="M490.3,109.5l-4.5-2.7c-2.8-1.7-4.8-3.4-6-5c-1.2-1.7-1.8-3.5-1.8-5.7c0-3.2,1.1-5.8,3.4-7.9
			c2.2-2,5.1-3,8.7-3c3.4,0,6.6,1,9.4,2.9v6.7c-2.9-2.8-6.1-4.3-9.5-4.3c-1.9,0-3.5,0.4-4.7,1.3s-1.8,2-1.8,3.4
			c0,1.2,0.5,2.4,1.4,3.4c0.9,1.1,2.4,2.2,4.4,3.4l4.5,2.6c5,3,7.5,6.8,7.5,11.4c0,3.3-1.1,5.9-3.3,8s-5.1,3.1-8.6,3.1
			c-4,0-7.7-1.2-11-3.7V116c3.2,4,6.8,6,11,6c1.8,0,3.4-0.5,4.6-1.5c1.2-1,1.8-2.3,1.8-3.8C495.7,114.1,493.9,111.8,490.3,109.5z"/>
		<path fill="#3C4D89" d="M507.3,126.7v-41h13c3.9,0,7,1.1,9.3,3.2s3.5,4.9,3.5,8.5c0,2.4-0.6,4.5-1.8,6.3c-1.2,1.8-2.8,3.2-4.9,4
			c-2.1,0.8-5,1.2-8.9,1.2h-4.3v17.8H507.3z M519.2,90.9h-6.1v12.8h6.4c2.4,0,4.2-0.6,5.5-1.7c1.3-1.1,1.9-2.7,1.9-4.8
			C527,93,524.4,90.9,519.2,90.9z"/>
		<path fill="#3C4D89" d="M546.5,85.5h4.1l18.4,41.2h-6l-5.5-12.1H540l-5.1,12.1h-6L546.5,85.5z M555.1,109.3l-6.6-14.8l-6.1,14.8
			H555.1z"/>
		<path fill="#3C4D89" d="M573.6,126.7V85.8h10.3c4.1,0,7.4,1,9.9,3.1s3.6,4.8,3.6,8.3c0,2.4-0.6,4.4-1.8,6.2
			c-1.2,1.7-2.9,3-5.1,3.9c1.3,0.9,2.6,2,3.8,3.5c1.2,1.5,3,4.1,5.3,7.8c1.4,2.3,2.6,4.1,3.4,5.2l2.2,2.9h-7l-1.8-2.7
			c-0.1-0.1-0.2-0.3-0.4-0.5l-1.1-1.6l-1.8-3l-2-3.2c-1.2-1.7-2.3-3-3.3-4c-1-1-1.9-1.7-2.7-2.1c-0.8-0.4-2.2-0.7-4.1-0.7h-1.5v17.8
			H573.6z M581.2,90.7h-1.8v12.9h2.2c3,0,5-0.3,6.1-0.8c1.1-0.5,2-1.3,2.6-2.3s0.9-2.2,0.9-3.5c0-1.3-0.3-2.5-1-3.5
			c-0.7-1-1.6-1.8-2.9-2.2C586.1,91,584.1,90.7,581.2,90.7z"/>
		<path fill="#3C4D89" d="M609.7,85.8h23.2V91h-17.3v12.5h16.8v5.2h-16.8v12.7h17.9v5.2h-23.8V85.8z"/>
		<path fill="#3C4D89" d="M672.2,85.8h5.6v40.9h-5l-27.4-31.5v31.5h-5.5V85.8h4.7l27.6,31.8V85.8z"/>
		<path fill="#3C4D89" d="M721.8,117.2v6.4c-4.3,2.3-9.3,3.5-14.9,3.5c-4.6,0-8.4-0.9-11.6-2.8c-3.2-1.8-5.7-4.4-7.6-7.6
			s-2.8-6.7-2.8-10.5c0-6,2.1-11,6.4-15c4.2-4.1,9.5-6.1,15.7-6.1c4.3,0,9.1,1.1,14.3,3.4v6.3c-4.8-2.7-9.5-4.1-14-4.1
			c-4.7,0-8.6,1.5-11.7,4.4s-4.6,6.7-4.6,11.1c0,4.5,1.5,8.2,4.6,11.1c3,2.9,6.9,4.3,11.7,4.3C712.2,121.8,717.1,120.2,721.8,117.2z
			"/>
		<path fill="#3C4D89" d="M753.6,85.8h7.1L745.6,105v21.7h-6V105l-15.1-19.3h7.1l11,14.1L753.6,85.8z"/>
		<path fill="#3C4D89" d="M320.9,141.8h5.9v40.9h-5.9V141.8z"/>
		<path fill="#3C4D89" d="M368.3,141.8h5.6v40.9h-5l-27.4-31.5v31.5H336v-40.9h4.7l27.6,31.8V141.8z"/>
		<path fill="#3C4D89" d="M379.2,141.7h34.2v5.2h-14.3v35.8h-5.9v-35.8h-14V141.7z"/>
		<path fill="#3C4D89" d="M418.9,141.8h23.2v5.2h-17.3v12.5h16.8v5.2h-16.8v12.7h17.9v5.2h-23.8V141.8z"/>
		<path fill="#3C4D89" d="M449.1,182.7v-40.9h10.3c4.1,0,7.4,1,9.9,3.1s3.6,4.8,3.6,8.3c0,2.4-0.6,4.4-1.8,6.2
			c-1.2,1.7-2.9,3-5.1,3.9c1.3,0.9,2.6,2,3.8,3.5c1.2,1.5,3,4.1,5.3,7.8c1.4,2.3,2.6,4.1,3.4,5.2l2.2,2.9h-7l-1.8-2.7
			c-0.1-0.1-0.2-0.3-0.4-0.5l-1.1-1.6l-1.8-3l-2-3.2c-1.2-1.7-2.3-3-3.3-4c-1-1-1.9-1.7-2.7-2.1c-0.8-0.4-2.2-0.7-4.1-0.7h-1.5v17.8
			H449.1z M456.7,146.7h-1.8v12.9h2.2c3,0,5-0.3,6.1-0.8c1.1-0.5,2-1.3,2.6-2.3s0.9-2.2,0.9-3.5c0-1.3-0.3-2.5-1-3.5
			c-0.7-1-1.6-1.8-2.9-2.2C461.6,147,459.5,146.7,456.7,146.7z"/>
		<path fill="#3C4D89" d="M517.6,141.8h5.6v40.9h-5l-27.4-31.5v31.5h-5.5v-40.9h4.7l27.6,31.8V141.8z"/>
		<path fill="#3C4D89" d="M545,141.5h4.1l18.4,41.2h-6l-5.5-12.1h-17.5l-5.1,12.1h-6L545,141.5z M553.6,165.3l-6.6-14.8l-6.1,14.8
			H553.6z"/>
		<path fill="#3C4D89" d="M562.5,141.7h34.2v5.2h-14.3v35.8h-5.9v-35.8h-14V141.7z"/>
		<path fill="#3C4D89" d="M602.3,141.8h5.9v40.9h-5.9V141.8z"/>
		<path fill="#3C4D89" d="M637.3,141.2c6.3,0,11.6,2,15.8,6c4.2,4,6.3,9,6.3,15.1s-2.1,11-6.4,15s-9.6,5.9-16.1,5.9
			c-6.2,0-11.3-2-15.4-5.9c-4.1-4-6.2-8.9-6.2-14.9c0-6.1,2.1-11.2,6.2-15.2C625.7,143.2,631,141.2,637.3,141.2z M637.5,146.7
			c-4.7,0-8.5,1.5-11.5,4.4s-4.5,6.7-4.5,11.2c0,4.4,1.5,8.1,4.5,11c3,2.9,6.8,4.4,11.4,4.4c4.6,0,8.4-1.5,11.4-4.5
			s4.6-6.7,4.6-11.2c0-4.3-1.5-8-4.6-10.9S642,146.7,637.5,146.7z"/>
		<path fill="#3C4D89" d="M699.1,141.8h5.6v40.9h-5l-27.4-31.5v31.5h-5.5v-40.9h4.7l27.6,31.8V141.8z"/>
		<path fill="#3C4D89" d="M726.5,141.5h4.1l18.4,41.2h-6l-5.5-12.1h-17.5l-5.1,12.1h-6L726.5,141.5z M735.1,165.3l-6.6-14.8
			l-6.1,14.8H735.1z"/>
		<path fill="#3C4D89" d="M753.5,141.8h5.9v35.6h18.4v5.3h-24.3V141.8z"/>
		<path fill="#3C4D89" d="M561.9,224.4l-3.7-2.3c-2.3-1.4-4-2.8-5-4.2c-1-1.4-1.5-3-1.5-4.7c0-2.7,0.9-4.9,2.8-6.5
			c1.9-1.7,4.3-2.5,7.3-2.5c2.8,0,5.5,0.8,7.8,2.4v5.5c-2.5-2.4-5.1-3.5-7.9-3.5c-1.6,0-2.9,0.4-3.9,1.1s-1.5,1.7-1.5,2.8
			c0,1,0.4,2,1.1,2.9c0.8,0.9,2,1.8,3.6,2.8l3.7,2.2c4.2,2.5,6.2,5.6,6.2,9.5c0,2.7-0.9,5-2.7,6.7c-1.8,1.7-4.2,2.6-7.1,2.6
			c-3.4,0-6.4-1-9.2-3.1v-6.2c2.6,3.3,5.7,5,9.2,5c1.5,0,2.8-0.4,3.8-1.3c1-0.9,1.5-1.9,1.5-3.2
			C566.4,228.2,564.9,226.3,561.9,224.4z"/>
		<path fill="#3C4D89" d="M576.3,204.6h4.9v29.7h15.4v4.4h-20.2V204.6z"/>
		<path fill="#3C4D89" d="M617.6,204.1c5.3,0,9.7,1.7,13.2,5c3.5,3.3,5.3,7.5,5.3,12.5s-1.8,9.2-5.3,12.5s-8,4.9-13.4,4.9
			c-5.1,0-9.4-1.6-12.8-4.9s-5.1-7.4-5.1-12.4c0-5.1,1.7-9.3,5.2-12.6C607.9,205.8,612.3,204.1,617.6,204.1z M617.8,208.7
			c-3.9,0-7.1,1.2-9.6,3.7s-3.8,5.6-3.8,9.4c0,3.7,1.3,6.7,3.8,9.2s5.7,3.7,9.5,3.7c3.8,0,7-1.2,9.5-3.7s3.8-5.6,3.8-9.3
			c0-3.6-1.3-6.7-3.8-9.1S621.5,208.7,617.8,208.7z"/>
		<path fill="#3C4D89" d="M661.6,204.6h4.9L652,238.8h-1.1l-14.7-34.3h4.9l10.3,24L661.6,204.6z"/>
		<path fill="#3C4D89" d="M677.1,204.4h3.4l15.3,34.3h-5l-4.5-10.1h-14.6l-4.3,10.1h-5L677.1,204.4z M684.3,224.2l-5.5-12.4
			l-5.1,12.4H684.3z"/>
		<path fill="#3C4D89" d="M718.8,204.6h6.1l-14.8,16.2l18.4,17.9h-6.7l-17.4-16.8v16.8h-4.9v-34.1h4.9v15.6L718.8,204.6z"/>
		<path fill="#3C4D89" d="M732.4,204.6h4.9v34.1h-4.9V204.6z"/>
		<path fill="#3C4D89" d="M755.7,204.4h3.4l15.3,34.3h-5l-4.5-10.1h-14.6l-4.3,10.1h-5L755.7,204.4z M762.9,224.2l-5.5-12.4
			l-5.1,12.4H762.9z"/>
	</g>
</g>
</svg>
