<?xml version="1.0" encoding="utf-8"?>
<!-- Generator: Adobe Illustrator 19.0.0, SVG Export Plug-In . SVG Version: 6.00 Build 0)  -->
<svg version="1.0" xmlns="http://www.w3.org/2000/svg" xmlns:xlink="http://www.w3.org/1999/xlink" x="0px" y="0px"
	 viewBox="0 0 800 304.3" enable-background="new 0 0 800 304.3" xml:space="preserve">
<g id="Layer_2_copy" display="none">
</g>
<g id="Layer_1">
	<g>
		<g>
			<linearGradient id="SVGID_1_" gradientUnits="userSpaceOnUse" x1="144.7489" y1="98.2846" x2="159.572" y2="131.5776">
				<stop  offset="0" style="stop-color:#4F6AB2"/>
				<stop  offset="0.2256" style="stop-color:#475D9E"/>
				<stop  offset="0.653" style="stop-color:#323F78"/>
				<stop  offset="1" style="stop-color:#1F245A"/>
			</linearGradient>
			<ellipse fill="url(#SVGID_1_)" cx="152.2" cy="114.9" rx="18.5" ry="18.2"/>
			<linearGradient id="SVGID_2_" gradientUnits="userSpaceOnUse" x1="114.2816" y1="58.3497" x2="203.139" y2="257.9266">
				<stop  offset="0" style="stop-color:#4F6AB2"/>
				<stop  offset="0.2256" style="stop-color:#475D9E"/>
				<stop  offset="0.653" style="stop-color:#323F78"/>
				<stop  offset="1" style="stop-color:#1F245A"/>
			</linearGradient>
			<path fill="url(#SVGID_2_)" d="M231.2,75.3c-1.3-0.8-6.4-3.4-6.7-1.9c-0.6,2.8,16.4,12.7,16.9,26.3c0.2,6.4-5.7,26.7-40.9,38.1
				c-8.6,2.8-28.2,4.7-37.3,4.6c-11.1,0-31.5-3-42-6.6c-0.4-0.1-0.9-0.3-1.4-0.5c3.4-28.2,18.2-54.8,28.7-62.1
				c17-11.8,29.5-14.4,33.9-14.3c3.6,0,8.5,0.5,13.4,2c1.9,0.6,7.4,2.8,8.3,1.7c1.7-1.8-6.4-5.6-9-6.7c-7.6-3.2-22.7-6.2-38.2-6.2
				c-60.2,0-108.9,48.9-108.9,109.2c0,60.3,48.8,109.2,108.9,109.2c60.2,0,109.7-48.7,109.7-109.1
				C266.5,124.8,257.6,91.1,231.2,75.3z M132.8,57.8C127.4,61,122,65,119,67.9c-8.7,8.4-22.4,26.2-27.7,37.1
				c-1.9,3.8-4.2,9.2-6.5,15c-7.5-3.5-13.9-6.6-16.6-7.9C80.7,85.5,104.2,65.4,132.8,57.8z M59,146c3,5.2,8.9,10.2,15.8,14.7
				c-0.4,15.3,0.4,41,4.6,57c-13.1-17.1-20.9-38.7-20.9-62.1C58.5,152.4,58.7,149.2,59,146z M180.9,254c-2.2,0-4,0-6.5-0.9
				c-1.9-0.7-4.1-3.4-4.6-3.9c-9.3-11.8-11.9-27.7-12.8-30.8c-1.5-5.8-1.5-16.3-0.8-24.6c0-0.2-33.8-6-34.1-4.6
				c-0.9,6.1,0.3,18.2,1.7,24c1.6,6.8,5.2,17.9,8,25.1c2.4,6.2,7.2,12.8,11.8,17.4c-2.7-0.1-5.1-0.4-7.7-1.4
				c-4.7-1.9-10.2-10.2-11.6-12.2c-3.9-5.9-7.2-17.3-8.7-24.3c-1.8-8.1-4-26.4-3.1-34.6c0.2-1.5,0.4-3.1,0.6-4.7
				c17.5,4.8,51,8.7,67.3,6.3c28.7-4.4,49.7-17.7,61.4-28.3c4.5-4.1,13.3-19,13.4-24.1c1.4,7.2,2,14.9,2,23.4
				C257.1,204.3,225.7,242.8,180.9,254z"/>
		</g>
	</g>
	
		<image display="none" overflow="visible" width="69" height="71" xlink:href="CF63EC91092AE89A.jpg"  transform="matrix(5.0907 0 0 5.0907 479.3125 62.8018)">
	</image>
</g>
<g id="Layer_2" display="none">
	<g display="inline">
		<path fill="#3C4D89" d="M312.3,76h34.2v5.2h-14.3v35.8h-5.9V81.2h-14V76z"/>
		<path fill="#3C4D89" d="M352.2,116.9V76h10.3c4.1,0,7.4,1,9.9,3.1s3.6,4.8,3.6,8.3c0,2.4-0.6,4.4-1.8,6.2c-1.2,1.7-2.9,3-5.1,3.9
			c1.3,0.9,2.6,2,3.8,3.5c1.2,1.5,3,4.1,5.3,7.8c1.4,2.3,2.6,4.1,3.4,5.2l2.2,2.9h-7l-1.8-2.7c-0.1-0.1-0.2-0.3-0.4-0.5l-1.1-1.6
			l-1.8-3l-2-3.2c-1.2-1.7-2.3-3-3.3-4c-1-1-1.9-1.7-2.7-2.1c-0.8-0.4-2.2-0.7-4.1-0.7h-1.5v17.8H352.2z M359.8,81h-1.8v12.9h2.2
			c3,0,5-0.3,6.1-0.8c1.1-0.5,2-1.3,2.6-2.3s0.9-2.2,0.9-3.5c0-1.3-0.3-2.5-1-3.5c-0.7-1-1.6-1.8-2.9-2.2
			C364.8,81.2,362.7,81,359.8,81z"/>
		<path fill="#3C4D89" d="M401.3,75.8h4.1l18.4,41.2h-6l-5.5-12.1h-17.5l-5.1,12.1h-6L401.3,75.8z M410,99.6l-6.6-14.8l-6.1,14.8
			H410z"/>
		<path fill="#3C4D89" d="M460.8,76h5.6v40.9h-5L434,85.4v31.5h-5.5V76h4.7l27.6,31.8V76z"/>
		<path fill="#3C4D89" d="M485.3,99.8l-4.5-2.7c-2.8-1.7-4.8-3.4-6-5c-1.2-1.7-1.8-3.5-1.8-5.7c0-3.2,1.1-5.8,3.4-7.9
			c2.2-2,5.1-3,8.7-3c3.4,0,6.6,1,9.4,2.9V85c-2.9-2.8-6.1-4.3-9.5-4.3c-1.9,0-3.5,0.4-4.7,1.3s-1.8,2-1.8,3.4
			c0,1.2,0.5,2.4,1.4,3.4c0.9,1.1,2.4,2.2,4.4,3.4l4.5,2.6c5,3,7.5,6.8,7.5,11.4c0,3.3-1.1,5.9-3.3,8s-5.1,3.1-8.6,3.1
			c-4,0-7.7-1.2-11-3.7v-7.4c3.2,4,6.8,6,11,6c1.8,0,3.4-0.5,4.6-1.5c1.2-1,1.8-2.3,1.8-3.8C490.7,104.4,488.9,102,485.3,99.8z"/>
		<path fill="#3C4D89" d="M502.3,116.9V76h13c3.9,0,7,1.1,9.3,3.2s3.5,4.9,3.5,8.5c0,2.4-0.6,4.5-1.8,6.3c-1.2,1.8-2.8,3.2-4.9,4
			c-2.1,0.8-5,1.2-8.9,1.2h-4.3v17.8H502.3z M514.2,81.2h-6.1V94h6.4c2.4,0,4.2-0.6,5.5-1.7c1.3-1.1,1.9-2.7,1.9-4.8
			C522,83.3,519.4,81.2,514.2,81.2z"/>
		<path fill="#3C4D89" d="M541.5,75.8h4.1l18.4,41.2h-6l-5.5-12.1H535l-5.1,12.1h-6L541.5,75.8z M550.1,99.6l-6.6-14.8l-6.1,14.8
			H550.1z"/>
		<path fill="#3C4D89" d="M568.6,116.9V76h10.3c4.1,0,7.4,1,9.9,3.1s3.6,4.8,3.6,8.3c0,2.4-0.6,4.4-1.8,6.2c-1.2,1.7-2.9,3-5.1,3.9
			c1.3,0.9,2.6,2,3.8,3.5c1.2,1.5,3,4.1,5.3,7.8c1.4,2.3,2.6,4.1,3.4,5.2l2.2,2.9h-7l-1.8-2.7c-0.1-0.1-0.2-0.3-0.4-0.5l-1.1-1.6
			l-1.8-3l-2-3.2c-1.2-1.7-2.3-3-3.3-4c-1-1-1.9-1.7-2.7-2.1c-0.8-0.4-2.2-0.7-4.1-0.7h-1.5v17.8H568.6z M576.2,81h-1.8v12.9h2.2
			c3,0,5-0.3,6.1-0.8c1.1-0.5,2-1.3,2.6-2.3s0.9-2.2,0.9-3.5c0-1.3-0.3-2.5-1-3.5c-0.7-1-1.6-1.8-2.9-2.2
			C581.1,81.2,579.1,81,576.2,81z"/>
		<path fill="#3C4D89" d="M604.7,76h23.2v5.2h-17.3v12.5h16.8V99h-16.8v12.7h17.9v5.2h-23.8V76z"/>
		<path fill="#3C4D89" d="M667.2,76h5.6v40.9h-5l-27.4-31.5v31.5h-5.5V76h4.7l27.6,31.8V76z"/>
		<path fill="#3C4D89" d="M716.8,107.5v6.4c-4.3,2.3-9.3,3.5-14.9,3.5c-4.6,0-8.4-0.9-11.6-2.8c-3.2-1.8-5.7-4.4-7.6-7.6
			s-2.8-6.7-2.8-10.5c0-6,2.1-11,6.4-15c4.2-4.1,9.5-6.1,15.7-6.1c4.3,0,9.1,1.1,14.3,3.4v6.3c-4.8-2.7-9.5-4.1-14-4.1
			c-4.7,0-8.6,1.5-11.7,4.4s-4.6,6.7-4.6,11.1c0,4.5,1.5,8.2,4.6,11.1c3,2.9,6.9,4.3,11.7,4.3C707.2,112,712.1,110.5,716.8,107.5z"
			/>
		<path fill="#3C4D89" d="M748.6,76h7.1l-15.1,19.3v21.7h-6V95.3L719.5,76h7.1l11,14.1L748.6,76z"/>
		<path fill="#3C4D89" d="M315.9,139h5.9v40.9h-5.9V139z"/>
		<path fill="#3C4D89" d="M363.3,139h5.6v40.9h-5l-27.4-31.5v31.5H331V139h4.7l27.6,31.8V139z"/>
		<path fill="#3C4D89" d="M374.2,139h34.2v5.2h-14.3v35.8h-5.9v-35.8h-14V139z"/>
		<path fill="#3C4D89" d="M413.9,139h23.2v5.2h-17.3v12.5h16.8v5.2h-16.8v12.7h17.9v5.2h-23.8V139z"/>
		<path fill="#3C4D89" d="M444.1,179.9V139h10.3c4.1,0,7.4,1,9.9,3.1s3.6,4.8,3.6,8.3c0,2.4-0.6,4.4-1.8,6.2c-1.2,1.7-2.9,3-5.1,3.9
			c1.3,0.9,2.6,2,3.8,3.5c1.2,1.5,3,4.1,5.3,7.8c1.4,2.3,2.6,4.1,3.4,5.2l2.2,2.9h-7l-1.8-2.7c-0.1-0.1-0.2-0.3-0.4-0.5l-1.1-1.6
			l-1.8-3l-2-3.2c-1.2-1.7-2.3-3-3.3-4c-1-1-1.9-1.7-2.7-2.1c-0.8-0.4-2.2-0.7-4.1-0.7h-1.5v17.8H444.1z M451.7,144h-1.8v12.9h2.2
			c3,0,5-0.3,6.1-0.8c1.1-0.5,2-1.3,2.6-2.3s0.9-2.2,0.9-3.5c0-1.3-0.3-2.5-1-3.5c-0.7-1-1.6-1.8-2.9-2.2
			C456.6,144.2,454.5,144,451.7,144z"/>
		<path fill="#3C4D89" d="M512.6,139h5.6v40.9h-5l-27.4-31.5v31.5h-5.5V139h4.7l27.6,31.8V139z"/>
		<path fill="#3C4D89" d="M540,138.8h4.1l18.4,41.2h-6l-5.5-12.1h-17.5l-5.1,12.1h-6L540,138.8z M548.6,162.6l-6.6-14.8l-6.1,14.8
			H548.6z"/>
		<path fill="#3C4D89" d="M557.5,139h34.2v5.2h-14.3v35.8h-5.9v-35.8h-14V139z"/>
		<path fill="#3C4D89" d="M597.3,139h5.9v40.9h-5.9V139z"/>
		<path fill="#3C4D89" d="M632.3,138.4c6.3,0,11.6,2,15.8,6c4.2,4,6.3,9,6.3,15.1s-2.1,11-6.4,15s-9.6,5.9-16.1,5.9
			c-6.2,0-11.3-2-15.4-5.9c-4.1-4-6.2-8.9-6.2-14.9c0-6.1,2.1-11.2,6.2-15.2C620.7,140.4,626,138.4,632.3,138.4z M632.5,144
			c-4.7,0-8.5,1.5-11.5,4.4s-4.5,6.7-4.5,11.2c0,4.4,1.5,8.1,4.5,11c3,2.9,6.8,4.4,11.4,4.4c4.6,0,8.4-1.5,11.4-4.5
			s4.6-6.7,4.6-11.2c0-4.3-1.5-8-4.6-10.9S637,144,632.5,144z"/>
		<path fill="#3C4D89" d="M694.1,139h5.6v40.9h-5l-27.4-31.5v31.5h-5.5V139h4.7l27.6,31.8V139z"/>
		<path fill="#3C4D89" d="M721.5,138.8h4.1l18.4,41.2h-6l-5.5-12.1h-17.5l-5.1,12.1h-6L721.5,138.8z M730.1,162.6l-6.6-14.8
			l-6.1,14.8H730.1z"/>
		<path fill="#3C4D89" d="M748.5,139h5.9v35.6h18.4v5.3h-24.3V139z"/>
		<path fill="#3C4D89" d="M523.5,219.7l-3.7-2.3c-2.3-1.4-4-2.8-5-4.2c-1-1.4-1.5-3-1.5-4.7c0-2.7,0.9-4.9,2.8-6.5
			c1.9-1.7,4.3-2.5,7.3-2.5c2.8,0,5.5,0.8,7.8,2.4v5.5c-2.5-2.4-5.1-3.5-7.9-3.5c-1.6,0-2.9,0.4-3.9,1.1s-1.5,1.7-1.5,2.8
			c0,1,0.4,2,1.1,2.9c0.8,0.9,2,1.8,3.6,2.8l3.7,2.2c4.2,2.5,6.2,5.6,6.2,9.5c0,2.7-0.9,5-2.7,6.7c-1.8,1.7-4.2,2.6-7.1,2.6
			c-3.4,0-6.4-1-9.2-3.1V225c2.6,3.3,5.7,5,9.2,5c1.5,0,2.8-0.4,3.8-1.3c1-0.9,1.5-1.9,1.5-3.2C528,223.5,526.5,221.5,523.5,219.7z"
			/>
		<path fill="#3C4D89" d="M538,199.8h4.9v29.7h15.4v4.4H538V199.8z"/>
		<path fill="#3C4D89" d="M579.2,199.3c5.3,0,9.7,1.7,13.2,5c3.5,3.3,5.3,7.5,5.3,12.5s-1.8,9.2-5.3,12.5s-8,4.9-13.4,4.9
			c-5.1,0-9.4-1.6-12.8-4.9S561,222,561,217c0-5.1,1.7-9.3,5.2-12.6C569.6,201,574,199.3,579.2,199.3z M579.4,204
			c-3.9,0-7.1,1.2-9.6,3.7s-3.8,5.6-3.8,9.4c0,3.7,1.3,6.7,3.8,9.2s5.7,3.7,9.5,3.7c3.8,0,7-1.2,9.5-3.7s3.8-5.6,3.8-9.3
			c0-3.6-1.3-6.7-3.8-9.1S583.1,204,579.4,204z"/>
		<path fill="#3C4D89" d="M623.3,199.8h4.9l-14.4,34.3h-1.1l-14.7-34.3h4.9l10.3,24L623.3,199.8z"/>
		<path fill="#3C4D89" d="M631.9,199.8h19.3v4.3h-14.5v10.4h14v4.4h-14v10.6h14.9v4.3h-19.8V199.8z"/>
		<path fill="#3C4D89" d="M684,199.8h4.6v34.1h-4.2l-22.8-26.3v26.3H657v-34.1h4l23,26.5V199.8z"/>
		<path fill="#3C4D89" d="M704.3,219.7l-3.7-2.3c-2.3-1.4-4-2.8-5-4.2c-1-1.4-1.5-3-1.5-4.7c0-2.7,0.9-4.9,2.8-6.5
			c1.9-1.7,4.3-2.5,7.3-2.5c2.8,0,5.5,0.8,7.8,2.4v5.5c-2.5-2.4-5.1-3.5-7.9-3.5c-1.6,0-2.9,0.4-3.9,1.1s-1.5,1.7-1.5,2.8
			c0,1,0.4,2,1.1,2.9c0.8,0.9,2,1.8,3.6,2.8l3.7,2.2c4.2,2.5,6.2,5.6,6.2,9.5c0,2.7-0.9,5-2.7,6.7c-1.8,1.7-4.2,2.6-7.1,2.6
			c-3.4,0-6.4-1-9.2-3.1V225c2.6,3.3,5.7,5,9.2,5c1.5,0,2.8-0.4,3.8-1.3c1-0.9,1.5-1.9,1.5-3.2C708.8,223.5,707.3,221.5,704.3,219.7
			z"/>
		<path fill="#3C4D89" d="M738.1,199.8h6.1L729.4,216l18.4,17.9h-6.7l-17.4-16.8v16.8h-4.9v-34.1h4.9v15.6L738.1,199.8z"/>
		<path fill="#3C4D89" d="M762.3,199.3c5.3,0,9.7,1.7,13.2,5c3.5,3.3,5.3,7.5,5.3,12.5s-1.8,9.2-5.3,12.5s-8,4.9-13.4,4.9
			c-5.1,0-9.4-1.6-12.8-4.9s-5.1-7.4-5.1-12.4c0-5.1,1.7-9.3,5.2-12.6C752.7,201,757,199.3,762.3,199.3z M762.5,204
			c-3.9,0-7.1,1.2-9.6,3.7s-3.8,5.6-3.8,9.4c0,3.7,1.3,6.7,3.8,9.2s5.7,3.7,9.5,3.7c3.8,0,7-1.2,9.5-3.7s3.8-5.6,3.8-9.3
			c0-3.6-1.3-6.7-3.8-9.1S766.2,204,762.5,204z"/>
	</g>
</g>
<g id="Layer_2_copy_3">
	<g>
		<path fill="#3C4D89" d="M313.9,137.8h5.9v40.9h-5.9V137.8z"/>
		<path fill="#3C4D89" d="M361.3,137.8h5.6v40.9h-5l-27.4-31.5v31.5H329v-40.9h4.7l27.6,31.8V137.8z"/>
		<path fill="#3C4D89" d="M372.2,137.7h34.2v5.2h-14.3v35.8h-5.9v-35.8h-14V137.7z"/>
		<path fill="#3C4D89" d="M411.9,137.8h23.2v5.2h-17.3v12.5h16.8v5.2h-16.8v12.7h17.9v5.2h-23.8V137.8z"/>
		<path fill="#3C4D89" d="M442.1,178.7v-40.9h10.3c4.1,0,7.4,1,9.9,3.1s3.6,4.8,3.6,8.3c0,2.4-0.6,4.4-1.8,6.2
			c-1.2,1.7-2.9,3-5.1,3.9c1.3,0.9,2.6,2,3.8,3.5c1.2,1.5,3,4.1,5.3,7.8c1.4,2.3,2.6,4.1,3.4,5.2l2.2,2.9h-7l-1.8-2.7
			c-0.1-0.1-0.2-0.3-0.4-0.5l-1.1-1.6l-1.8-3l-2-3.2c-1.2-1.7-2.3-3-3.3-4c-1-1-1.9-1.7-2.7-2.1c-0.8-0.4-2.2-0.7-4.1-0.7h-1.5v17.8
			H442.1z M449.7,142.7h-1.8v12.9h2.2c3,0,5-0.3,6.1-0.8c1.1-0.5,2-1.3,2.6-2.3s0.9-2.2,0.9-3.5c0-1.3-0.3-2.5-1-3.5
			c-0.7-1-1.6-1.8-2.9-2.2C454.6,143,452.5,142.7,449.7,142.7z"/>
		<path fill="#3C4D89" d="M510.6,137.8h5.6v40.9h-5l-27.4-31.5v31.5h-5.5v-40.9h4.7l27.6,31.8V137.8z"/>
		<path fill="#3C4D89" d="M538,137.5h4.1l18.4,41.2h-6l-5.5-12.1h-17.5l-5.1,12.1h-6L538,137.5z M546.6,161.3l-6.6-14.8l-6.1,14.8
			H546.6z"/>
		<path fill="#3C4D89" d="M555.5,137.7h34.2v5.2h-14.3v35.8h-5.9v-35.8h-14V137.7z"/>
		<path fill="#3C4D89" d="M595.3,137.8h5.9v40.9h-5.9V137.8z"/>
		<path fill="#3C4D89" d="M630.3,137.2c6.3,0,11.6,2,15.8,6c4.2,4,6.3,9,6.3,15.1s-2.1,11-6.4,15s-9.6,5.9-16.1,5.9
			c-6.2,0-11.3-2-15.4-5.9c-4.1-4-6.2-8.9-6.2-14.9c0-6.1,2.1-11.2,6.2-15.2C618.7,139.2,624,137.2,630.3,137.2z M630.5,142.7
			c-4.7,0-8.5,1.5-11.5,4.4s-4.5,6.7-4.5,11.2c0,4.4,1.5,8.1,4.5,11c3,2.9,6.8,4.4,11.4,4.4c4.6,0,8.4-1.5,11.4-4.5
			s4.6-6.7,4.6-11.2c0-4.3-1.5-8-4.6-10.9S635,142.7,630.5,142.7z"/>
		<path fill="#3C4D89" d="M692.1,137.8h5.6v40.9h-5l-27.4-31.5v31.5h-5.5v-40.9h4.7l27.6,31.8V137.8z"/>
		<path fill="#3C4D89" d="M719.5,137.5h4.1l18.4,41.2h-6l-5.5-12.1h-17.5l-5.1,12.1h-6L719.5,137.5z M728.1,161.3l-6.6-14.8
			l-6.1,14.8H728.1z"/>
		<path fill="#3C4D89" d="M746.5,137.8h5.9v35.6h18.4v5.3h-24.3V137.8z"/>
	</g>
	<g>
		<rect x="313.7" y="79.5" fill="none" width="459.8" height="69"/>
		<path fill="#3C4D89" d="M314.7,79.4h34.2v5.2h-14.3v35.8h-5.9V84.6h-14V79.4z"/>
		<path fill="#3C4D89" d="M355.8,120.4V79.5H366c4.1,0,7.4,1,9.9,3.1s3.6,4.8,3.6,8.3c0,2.4-0.6,4.4-1.8,6.2c-1.2,1.7-2.9,3-5.1,3.9
			c1.3,0.9,2.6,2,3.8,3.5c1.2,1.5,3,4.1,5.3,7.8c1.4,2.3,2.6,4.1,3.4,5.2l2.2,2.9h-7l-1.8-2.7c-0.1-0.1-0.2-0.3-0.4-0.5l-1.1-1.6
			l-1.8-3l-2-3.2c-1.2-1.7-2.3-3-3.3-4c-1-1-1.9-1.7-2.7-2.1c-0.8-0.4-2.2-0.7-4.1-0.7h-1.5v17.8H355.8z M363.4,84.5h-1.8v12.9h2.2
			c3,0,5-0.3,6.1-0.8c1.1-0.5,2-1.3,2.6-2.3s0.9-2.2,0.9-3.5c0-1.3-0.3-2.5-1-3.5c-0.7-1-1.6-1.8-2.9-2.2
			C368.3,84.7,366.3,84.5,363.4,84.5z"/>
		<path fill="#3C4D89" d="M406.1,79.3h4.1l18.4,41.2h-6l-5.5-12.1h-17.5l-5.1,12.1h-6L406.1,79.3z M414.7,103.1l-6.6-14.8l-6.1,14.8
			H414.7z"/>
		<path fill="#3C4D89" d="M466.8,79.5h5.6v40.9h-5L440,88.9v31.5h-5.5V79.5h4.7l27.6,31.8V79.5z"/>
		<path fill="#3C4D89" d="M492.5,103.3l-4.5-2.7c-2.8-1.7-4.8-3.4-6-5c-1.2-1.7-1.8-3.5-1.8-5.7c0-3.2,1.1-5.8,3.4-7.9
			c2.2-2,5.1-3,8.7-3c3.4,0,6.6,1,9.4,2.9v6.7c-2.9-2.8-6.1-4.3-9.5-4.3c-1.9,0-3.5,0.4-4.7,1.3s-1.8,2-1.8,3.4
			c0,1.2,0.5,2.4,1.4,3.4c0.9,1.1,2.4,2.2,4.4,3.4l4.5,2.6c5,3,7.5,6.8,7.5,11.4c0,3.3-1.1,5.9-3.3,8s-5.1,3.1-8.6,3.1
			c-4,0-7.7-1.2-11-3.7v-7.4c3.2,4,6.8,6,11,6c1.8,0,3.4-0.5,4.6-1.5c1.2-1,1.8-2.3,1.8-3.8C497.9,107.9,496.1,105.5,492.5,103.3z"
			/>
		<path fill="#3C4D89" d="M510.7,120.4v-41h13c3.9,0,7,1.1,9.3,3.2s3.5,4.9,3.5,8.5c0,2.4-0.6,4.5-1.8,6.3c-1.2,1.8-2.8,3.2-4.9,4
			c-2.1,0.8-5,1.2-8.9,1.2h-4.3v17.8H510.7z M522.6,84.6h-6.1v12.8h6.4c2.4,0,4.2-0.6,5.5-1.7c1.3-1.1,1.9-2.7,1.9-4.8
			C530.4,86.7,527.8,84.6,522.6,84.6z"/>
		<path fill="#3C4D89" d="M551.1,79.3h4.1l18.4,41.2h-6l-5.5-12.1h-17.5l-5.1,12.1h-6L551.1,79.3z M559.7,103.1l-6.6-14.8l-6.1,14.8
			H559.7z"/>
		<path fill="#3C4D89" d="M579.4,120.4V79.5h10.3c4.1,0,7.4,1,9.9,3.1s3.6,4.8,3.6,8.3c0,2.4-0.6,4.4-1.8,6.2
			c-1.2,1.7-2.9,3-5.1,3.9c1.3,0.9,2.6,2,3.8,3.5c1.2,1.5,3,4.1,5.3,7.8c1.4,2.3,2.6,4.1,3.4,5.2l2.2,2.9h-7l-1.8-2.7
			c-0.1-0.1-0.2-0.3-0.4-0.5l-1.1-1.6l-1.8-3l-2-3.2c-1.2-1.7-2.3-3-3.3-4c-1-1-1.9-1.7-2.7-2.1c-0.8-0.4-2.2-0.7-4.1-0.7h-1.5v17.8
			H579.4z M587,84.5h-1.8v12.9h2.2c3,0,5-0.3,6.1-0.8c1.1-0.5,2-1.3,2.6-2.3s0.9-2.2,0.9-3.5c0-1.3-0.3-2.5-1-3.5
			c-0.7-1-1.6-1.8-2.9-2.2C591.9,84.7,589.9,84.5,587,84.5z"/>
		<path fill="#3C4D89" d="M616.6,79.5h23.2v5.2h-17.3v12.5h16.8v5.2h-16.8v12.7h17.9v5.2h-23.8V79.5z"/>
		<path fill="#3C4D89" d="M680.4,79.5h5.6v40.9h-5l-27.4-31.5v31.5H648V79.5h4.7l27.6,31.8V79.5z"/>
		<path fill="#3C4D89" d="M731.2,110.9v6.4c-4.3,2.3-9.3,3.5-14.9,3.5c-4.6,0-8.4-0.9-11.6-2.8c-3.2-1.8-5.7-4.4-7.6-7.6
			s-2.8-6.7-2.8-10.5c0-6,2.1-11,6.4-15c4.2-4.1,9.5-6.1,15.7-6.1c4.3,0,9.1,1.1,14.3,3.4v6.3c-4.8-2.7-9.5-4.1-14-4.1
			c-4.7,0-8.6,1.5-11.7,4.4s-4.6,6.7-4.6,11.1c0,4.5,1.5,8.2,4.6,11.1c3,2.9,6.9,4.3,11.7,4.3C721.6,115.5,726.4,114,731.2,110.9z"
			/>
		<path fill="#3C4D89" d="M764.2,79.5h7.1l-15.1,19.3v21.7h-6V98.8l-15.1-19.3h7.1l11,14.1L764.2,79.5z"/>
	</g>
	<g>
		<path fill="#3C4D89" d="M559.3,214.7l-3.7-2.3c-2.3-1.4-4-2.8-5-4.2c-1-1.4-1.5-3-1.5-4.7c0-2.7,0.9-4.9,2.8-6.5
			c1.9-1.7,4.3-2.5,7.3-2.5c2.8,0,5.5,0.8,7.8,2.4v5.5c-2.5-2.4-5.1-3.5-7.9-3.5c-1.6,0-2.9,0.4-3.9,1.1s-1.5,1.7-1.5,2.8
			c0,1,0.4,2,1.1,2.9c0.8,0.9,2,1.8,3.6,2.8l3.7,2.2c4.2,2.5,6.2,5.6,6.2,9.5c0,2.7-0.9,5-2.7,6.7c-1.8,1.7-4.2,2.6-7.1,2.6
			c-3.4,0-6.4-1-9.2-3.1v-6.2c2.6,3.3,5.7,5,9.2,5c1.5,0,2.8-0.4,3.8-1.3c1-0.9,1.5-1.9,1.5-3.2
			C563.7,218.5,562.2,216.6,559.3,214.7z"/>
		<path fill="#3C4D89" d="M573.7,194.9h4.9v29.7h15.4v4.4h-20.2V194.9z"/>
		<path fill="#3C4D89" d="M615,194.4c5.3,0,9.7,1.7,13.2,5c3.5,3.3,5.3,7.5,5.3,12.5s-1.8,9.2-5.3,12.5s-8,4.9-13.4,4.9
			c-5.1,0-9.4-1.6-12.8-4.9s-5.1-7.4-5.1-12.4c0-5.1,1.7-9.3,5.2-12.6C605.3,196.1,609.7,194.4,615,194.4z M615.1,199
			c-3.9,0-7.1,1.2-9.6,3.7s-3.8,5.6-3.8,9.4c0,3.7,1.3,6.7,3.8,9.2s5.7,3.7,9.5,3.7c3.8,0,7-1.2,9.5-3.7s3.8-5.6,3.8-9.3
			c0-3.6-1.3-6.7-3.8-9.1S618.9,199,615.1,199z"/>
		<path fill="#3C4D89" d="M659,194.9h4.9l-14.4,34.3h-1.1l-14.7-34.3h4.9l10.3,24L659,194.9z"/>
		<path fill="#3C4D89" d="M674.5,194.7h3.4l15.3,34.3h-5l-4.5-10.1h-14.6l-4.3,10.1h-5L674.5,194.7z M681.6,214.5l-5.5-12.4
			l-5.1,12.4H681.6z"/>
		<path fill="#3C4D89" d="M716.2,194.9h6.1l-14.8,16.2L726,229h-6.7l-17.4-16.8V229H697v-34.1h4.9v15.6L716.2,194.9z"/>
		<path fill="#3C4D89" d="M729.8,194.9h4.9V229h-4.9V194.9z"/>
		<path fill="#3C4D89" d="M753.1,194.7h3.4l15.3,34.3h-5l-4.5-10.1h-14.6l-4.3,10.1h-5L753.1,194.7z M760.3,214.5l-5.5-12.4
			l-5.1,12.4H760.3z"/>
	</g>
</g>
<g id="Layer_5" display="none">
</g>
</svg>
